<svg width="18" height="18" viewBox="0 0 18 18" fill="none" xmlns="http://www.w3.org/2000/svg">
<path d="M4.5 16.3125H11.25C11.6976 16.3125 12.1268 16.1347 12.4432 15.8182C12.7597 15.5018 12.9375 15.0726 12.9375 14.625V5.625C12.9375 5.17745 12.7597 4.74822 12.4432 4.43176C12.1268 4.11529 11.6976 3.9375 11.25 3.9375H4.5C4.05245 3.9375 3.62322 4.11529 3.30676 4.43176C2.99029 4.74822 2.8125 5.17745 2.8125 5.625V14.625C2.8125 15.0726 2.99029 15.5018 3.30676 15.8182C3.62322 16.1347 4.05245 16.3125 4.5 16.3125ZM11.25 5.0625C11.3992 5.0625 11.5423 5.12176 11.6477 5.22725C11.7532 5.33274 11.8125 5.47582 11.8125 5.625V14.625C11.8125 14.7742 11.7532 14.9173 11.6477 15.0227C11.5423 15.1282 11.3992 15.1875 11.25 15.1875H4.5C4.35082 15.1875 4.20774 15.1282 4.10225 15.0227C3.99676 14.9173 3.9375 14.7742 3.9375 14.625V5.625C3.9375 5.47582 3.99676 5.33274 4.10225 5.22725C4.20774 5.12176 4.35082 5.0625 4.5 5.0625H11.25Z" fill="#2166F0"/>
<path d="M14.625 10.6875C14.7742 10.6875 14.9173 10.6282 15.0227 10.5227C15.1282 10.4173 15.1875 10.2742 15.1875 10.125V3.375C15.1875 2.92745 15.0097 2.49822 14.6932 2.18176C14.3768 1.86529 13.9476 1.6875 13.5 1.6875H7.875C7.72582 1.6875 7.58274 1.74676 7.47725 1.85225C7.37176 1.95774 7.3125 2.10082 7.3125 2.25C7.3125 2.39918 7.37176 2.54226 7.47725 2.64775C7.58274 2.75324 7.72582 2.8125 7.875 2.8125H13.5C13.6492 2.8125 13.7923 2.87176 13.8977 2.97725C14.0032 3.08274 14.0625 3.22582 14.0625 3.375V10.125C14.0625 10.2742 14.1218 10.4173 14.2273 10.5227C14.3327 10.6282 14.4758 10.6875 14.625 10.6875Z" fill="#2166F0"/>
</svg>
