<svg width="105" height="40" viewBox="0 0 105 40" fill="none" xmlns="http://www.w3.org/2000/svg">
<rect width="105" height="40" rx="6" fill="white"/>
<rect x="0.5" y="0.5" width="104" height="39" rx="5.5" stroke="#05060F" stroke-opacity="0.1"/>
<path d="M16.2846 12.1451L27.7132 12.1451C29.2846 12.1451 30.5703 13.4308 30.5703 15.0022L30.5703 20.0022C30.5703 20.4308 30.2846 20.7165 29.856 20.7165C29.4275 20.7165 29.1417 20.4308 29.1417 20.0022L29.1417 15.0022C29.1417 14.2165 28.4989 13.5737 27.7132 13.5737L16.2846 13.5737C15.4989 13.5737 14.856 14.2165 14.856 15.0022L14.856 20.0022C14.856 20.4308 14.5703 20.7165 14.1417 20.7165C13.7132 20.7165 13.4275 20.4308 13.4275 20.0022L13.4275 15.0022C13.4275 13.4308 14.7132 12.1451 16.2846 12.1451ZM21.4989 17.3594L19.356 19.5022C19.0703 19.7879 19.0703 20.2165 19.356 20.5022C19.6417 20.7879 20.0703 20.7879 20.356 20.5022L21.2846 19.5737L21.2846 27.1451C21.2846 27.5737 21.5703 27.8594 21.9989 27.8594C22.4275 27.8594 22.7132 27.5737 22.7132 27.1451L22.7132 19.5737L23.6417 20.5022C23.9275 20.7879 24.356 20.7879 24.6417 20.5022C24.9275 20.2165 24.9275 19.7879 24.6417 19.5022L22.4989 17.3594C22.356 17.2165 22.1417 17.1451 21.9989 17.1451C21.856 17.1451 21.6417 17.2165 21.4989 17.3594Z" fill="#05060F" fill-opacity="0.6"/>
<path d="M39.1985 25V14.0909H46.038V15.5078H40.8445V18.8317H45.6811V20.2433H40.8445V23.5831H46.1019V25H39.1985ZM49.3659 16.8182L51.1716 20.0036L52.9933 16.8182H54.7352L52.1837 20.9091L54.7565 25H53.0146L51.1716 21.9425L49.3339 25H47.5867L50.1329 20.9091L47.6187 16.8182H49.3659ZM56.3705 28.0682V16.8182H57.9259V18.1445H58.059C58.1514 17.9741 58.2845 17.777 58.4585 17.5533C58.6325 17.3295 58.874 17.1342 59.183 16.9673C59.4919 16.7969 59.9003 16.7116 60.4081 16.7116C61.0686 16.7116 61.6581 16.8786 62.1766 17.2124C62.695 17.5462 63.1017 18.0273 63.3964 18.6559C63.6947 19.2844 63.8438 20.0408 63.8438 20.9251C63.8438 21.8093 63.6965 22.5675 63.4017 23.1996C63.107 23.8281 62.7021 24.3129 62.1872 24.6538C61.6723 24.9911 61.0846 25.1598 60.4241 25.1598C59.9269 25.1598 59.5203 25.0763 59.2043 24.9094C58.8918 24.7425 58.6468 24.5472 58.4692 24.3235C58.2916 24.0998 58.1549 23.9009 58.059 23.7269H57.9632V28.0682H56.3705ZM57.9312 20.9091C57.9312 21.4844 58.0146 21.9886 58.1816 22.4219C58.3485 22.8551 58.5899 23.1942 58.906 23.4393C59.222 23.6808 59.6091 23.8015 60.0672 23.8015C60.5431 23.8015 60.9408 23.6754 61.2604 23.4233C61.58 23.1676 61.8215 22.8214 61.9848 22.3846C62.1517 21.9478 62.2352 21.456 62.2352 20.9091C62.2352 20.3693 62.1535 19.8846 61.9901 19.4549C61.8303 19.0252 61.5889 18.6861 61.2657 18.4375C60.9461 18.1889 60.5466 18.0646 60.0672 18.0646C59.6056 18.0646 59.2149 18.1836 58.8953 18.4215C58.5793 18.6594 58.3396 18.9915 58.1762 19.4176C58.0129 19.8437 57.9312 20.3409 57.9312 20.9091ZM69.0747 25.1651C68.3076 25.1651 67.6382 24.9893 67.0665 24.6378C66.4948 24.2862 66.0509 23.7944 65.7348 23.1623C65.4188 22.5302 65.2607 21.7915 65.2607 20.9464C65.2607 20.0977 65.4188 19.3555 65.7348 18.7198C66.0509 18.0842 66.4948 17.5906 67.0665 17.239C67.6382 16.8874 68.3076 16.7116 69.0747 16.7116C69.8417 16.7116 70.5111 16.8874 71.0828 17.239C71.6546 17.5906 72.0985 18.0842 72.4145 18.7198C72.7306 19.3555 72.8886 20.0977 72.8886 20.9464C72.8886 21.7915 72.7306 22.5302 72.4145 23.1623C72.0985 23.7944 71.6546 24.2862 71.0828 24.6378C70.5111 24.9893 69.8417 25.1651 69.0747 25.1651ZM69.08 23.8281C69.5771 23.8281 69.9891 23.6967 70.3158 23.4339C70.6425 23.1712 70.884 22.8214 71.0402 22.3846C71.2 21.9478 71.2799 21.4666 71.2799 20.9411C71.2799 20.419 71.2 19.9396 71.0402 19.5028C70.884 19.0625 70.6425 18.7092 70.3158 18.4428C69.9891 18.1765 69.5771 18.0433 69.08 18.0433C68.5793 18.0433 68.1638 18.1765 67.8335 18.4428C67.5068 18.7092 67.2636 19.0625 67.1038 19.5028C66.9475 19.9396 66.8694 20.419 66.8694 20.9411C66.8694 21.4666 66.9475 21.9478 67.1038 22.3846C67.2636 22.8214 67.5068 23.1712 67.8335 23.4339C68.1638 23.6967 68.5793 23.8281 69.08 23.8281ZM74.6664 25V16.8182H76.2058V18.1179H76.291C76.4402 17.6776 76.7029 17.3313 77.0794 17.0792C77.4593 16.8235 77.889 16.6957 78.3684 16.6957C78.4679 16.6957 78.585 16.6992 78.72 16.7063C78.8585 16.7134 78.9668 16.7223 79.0449 16.733V18.2564C78.981 18.2386 78.8674 18.2191 78.704 18.1978C78.5407 18.1729 78.3773 18.1605 78.214 18.1605C77.8375 18.1605 77.502 18.2404 77.2072 18.4002C76.916 18.5565 76.6852 18.7749 76.5147 19.0554C76.3443 19.3324 76.2591 19.6484 76.2591 20.0036V25H74.6664ZM84.7259 16.8182V18.0966H80.2567V16.8182H84.7259ZM81.4553 14.858H83.0479V22.5977C83.0479 22.9066 83.0941 23.1392 83.1864 23.2955C83.2788 23.4482 83.3977 23.5529 83.5433 23.6097C83.6925 23.663 83.854 23.6896 84.0281 23.6896C84.1559 23.6896 84.2678 23.6808 84.3636 23.663C84.4595 23.6452 84.5341 23.631 84.5874 23.6204L84.875 24.9361C84.7827 24.9716 84.6513 25.0071 84.4808 25.0426C84.3104 25.0817 84.0973 25.103 83.8416 25.1065C83.4226 25.1136 83.032 25.0391 82.6697 24.8828C82.3075 24.7266 82.0146 24.4851 81.7908 24.1584C81.5671 23.8317 81.4553 23.4215 81.4553 22.9279V14.858Z" fill="#05060F" fill-opacity="0.6"/>
</svg>
