<svg width="16" height="15" viewBox="0 0 16 15" fill="none" xmlns="http://www.w3.org/2000/svg">
<path d="M12.0026 8.16146H4.0026C3.6026 8.16146 3.33594 7.89479 3.33594 7.49479C3.33594 7.09479 3.6026 6.82812 4.0026 6.82812H12.0026C12.4026 6.82812 12.6693 7.09479 12.6693 7.49479C12.6693 7.89479 12.4026 8.16146 12.0026 8.16146Z" fill="#05060F" fill-opacity="0.6"/>
<path d="M10.0026 12.1615H6.0026C5.6026 12.1615 5.33594 11.8948 5.33594 11.4948C5.33594 11.0948 5.6026 10.8281 6.0026 10.8281H10.0026C10.4026 10.8281 10.6693 11.0948 10.6693 11.4948C10.6693 11.8948 10.4026 12.1615 10.0026 12.1615Z" fill="#05060F" fill-opacity="0.6"/>
<path d="M14.0026 4.16146H2.0026C1.6026 4.16146 1.33594 3.89479 1.33594 3.49479C1.33594 3.09479 1.6026 2.82812 2.0026 2.82812H14.0026C14.4026 2.82812 14.6693 3.09479 14.6693 3.49479C14.6693 3.89479 14.4026 4.16146 14.0026 4.16146Z" fill="#05060F" fill-opacity="0.6"/>
</svg>
