<svg width="116" height="22" viewBox="0 0 116 22" fill="none" xmlns="http://www.w3.org/2000/svg">
<g clip-path="url(#clip0_1_1422)">
<path d="M11 0C4.92031 0 0 4.91975 0 11C0 17.0796 4.91975 22 11 22C17.0797 22 22 17.0802 22 11C22 4.92031 17.0802 0 11 0ZM11 20.4651C5.78093 20.4651 1.53489 16.2191 1.53489 11C1.53489 5.78089 5.78093 1.53489 11 1.53489C16.2191 1.53489 20.4651 5.78089 20.4651 11C20.4651 16.2191 16.2191 20.4651 11 20.4651Z" fill="#05060F" fill-opacity="0.6"/>
<path d="M10.6746 13.9219C10.0665 13.9219 9.57422 14.4286 9.57422 15.0367C9.57422 15.6304 10.052 16.1517 10.6746 16.1517C11.2973 16.1517 11.7895 15.6304 11.7895 15.0367C11.7895 14.4286 11.2827 13.9219 10.6746 13.9219Z" fill="#05060F" fill-opacity="0.6"/>
<path d="M10.8642 5.47656C8.90942 5.47656 8.01172 6.63496 8.01172 7.41682C8.01172 7.98151 8.48953 8.24216 8.88046 8.24216C9.66236 8.24216 9.34384 7.12721 10.8207 7.12721C11.5447 7.12721 12.1239 7.44578 12.1239 8.11184C12.1239 8.8937 11.313 9.34255 10.8352 9.74796C10.4153 10.1099 9.86509 10.7036 9.86509 11.9488C9.86509 12.7017 10.0678 12.9189 10.6614 12.9189C11.3709 12.9189 11.5157 12.6004 11.5157 12.3252C11.5157 11.5723 11.5302 11.138 12.3266 10.5153C12.7175 10.2113 13.9482 9.22666 13.9482 7.86563C13.9482 6.50459 12.7175 5.47656 10.8642 5.47656Z" fill="#05060F" fill-opacity="0.6"/>
</g>
<path d="M33.8622 13.1989H35.3736L36.4375 14.5859L36.9396 15.2024L38.6349 17.4148H37.0639L35.9304 15.9382L35.5426 15.4013L33.8622 13.1989ZM38.9631 11.4091C38.9631 12.4962 38.7642 13.4309 38.3665 14.2131C37.9688 14.992 37.4235 15.5919 36.7308 16.0128C36.0414 16.4304 35.2576 16.6392 34.3793 16.6392C33.4976 16.6392 32.7105 16.4304 32.0178 16.0128C31.3284 15.5919 30.7848 14.9903 30.3871 14.2081C29.9893 13.4259 29.7905 12.4929 29.7905 11.4091C29.7905 10.322 29.9893 9.38897 30.3871 8.61008C30.7848 7.82789 31.3284 7.22798 32.0178 6.81037C32.7105 6.38944 33.4976 6.17898 34.3793 6.17898C35.2576 6.17898 36.0414 6.38944 36.7308 6.81037C37.4235 7.22798 37.9688 7.82789 38.3665 8.61008C38.7642 9.38897 38.9631 10.322 38.9631 11.4091ZM37.4418 11.4091C37.4418 10.5805 37.3075 9.88281 37.0391 9.31605C36.7739 8.74598 36.4093 8.3151 35.9453 8.02344C35.4846 7.72846 34.9626 7.58097 34.3793 7.58097C33.7926 7.58097 33.2689 7.72846 32.8082 8.02344C32.3475 8.3151 31.983 8.74598 31.7145 9.31605C31.4493 9.88281 31.3168 10.5805 31.3168 11.4091C31.3168 12.2377 31.4493 12.937 31.7145 13.5071C31.983 14.0739 32.3475 14.5047 32.8082 14.7997C33.2689 15.0914 33.7926 15.2372 34.3793 15.2372C34.9626 15.2372 35.4846 15.0914 35.9453 14.7997C36.4093 14.5047 36.7739 14.0739 37.0391 13.5071C37.3075 12.937 37.4418 12.2377 37.4418 11.4091ZM40.6 16.5V15.4808L44.7363 10.2259V10.1562H40.7342V8.86364H46.5907V9.94744L42.6135 15.1378V15.2074H46.7299V16.5H40.6ZM51.4815 16.6541C50.7424 16.6541 50.1061 16.4867 49.5724 16.152C49.0421 15.8139 48.6345 15.3482 48.3494 14.755C48.0644 14.1617 47.9219 13.4822 47.9219 12.7166C47.9219 11.9411 48.0677 11.2566 48.3594 10.6634C48.651 10.0668 49.062 9.60109 49.5923 9.26633C50.1226 8.93158 50.7474 8.7642 51.4666 8.7642C52.0466 8.7642 52.5637 8.87192 53.0178 9.08736C53.4718 9.29948 53.8381 9.59777 54.1165 9.98224C54.3982 10.3667 54.5656 10.8158 54.6186 11.3295H53.1719C53.0923 10.9716 52.91 10.6634 52.625 10.4048C52.3433 10.1463 51.9654 10.017 51.4915 10.017C51.0772 10.017 50.7143 10.1264 50.4027 10.3452C50.0945 10.5606 49.8542 10.8688 49.6818 11.2699C49.5095 11.6676 49.4233 12.1383 49.4233 12.6818C49.4233 13.2386 49.5078 13.7192 49.6768 14.1236C49.8459 14.5279 50.0845 14.8411 50.3928 15.0632C50.7043 15.2853 51.0705 15.3963 51.4915 15.3963C51.7732 15.3963 52.0284 15.3449 52.2571 15.2422C52.4891 15.1361 52.683 14.9853 52.8388 14.7898C52.9979 14.5942 53.1089 14.3589 53.1719 14.0838H54.6186C54.5656 14.5777 54.4048 15.0185 54.1364 15.4062C53.8679 15.794 53.5083 16.099 53.0575 16.321C52.6101 16.5431 52.0848 16.6541 51.4815 16.6541ZM57.1479 19.3636C56.9258 19.3636 56.7237 19.3454 56.5414 19.3089C56.3591 19.2758 56.2232 19.2393 56.1337 19.1996L56.4917 17.9815C56.7634 18.0545 57.0054 18.0859 57.2175 18.076C57.4296 18.0661 57.6169 17.9865 57.7793 17.8374C57.945 17.6882 58.0908 17.4446 58.2168 17.1065L58.4007 16.5994L55.6067 8.86364H57.1976L59.1316 14.7898H59.2111L61.1451 8.86364H62.7409L59.5939 17.5192C59.4481 17.9169 59.2625 18.2533 59.0371 18.5284C58.8117 18.8068 58.5433 19.0156 58.2317 19.1548C57.9202 19.294 57.5589 19.3636 57.1479 19.3636ZM67.9624 16.5V6.31818H69.4986V10.7429H74.5746V6.31818H76.1158V16.5H74.5746V12.0604H69.4986V16.5H67.9624ZM81.5249 16.6541C80.7725 16.6541 80.1245 16.4934 79.581 16.1719C79.0407 15.8471 78.6231 15.3913 78.3281 14.8047C78.0365 14.2147 77.8906 13.5237 77.8906 12.7315C77.8906 11.9493 78.0365 11.2599 78.3281 10.6634C78.6231 10.0668 79.0341 9.60109 79.5611 9.26633C80.0914 8.93158 80.7112 8.7642 81.4205 8.7642C81.8513 8.7642 82.2689 8.83546 82.6733 8.97798C83.0777 9.1205 83.4406 9.34422 83.7621 9.64915C84.0836 9.95407 84.3371 10.3501 84.5227 10.8374C84.7083 11.3213 84.8011 11.9096 84.8011 12.6023V13.1293H78.7308V12.0156H83.3445C83.3445 11.6245 83.2649 11.2782 83.1058 10.9766C82.9467 10.6716 82.723 10.4313 82.4347 10.2557C82.1496 10.08 81.8149 9.99219 81.4304 9.99219C81.0128 9.99219 80.6482 10.0949 80.3366 10.3004C80.0284 10.5026 79.7898 10.7678 79.6207 11.0959C79.455 11.4207 79.3722 11.7737 79.3722 12.1548V13.0249C79.3722 13.5353 79.4616 13.9695 79.6406 14.3274C79.8229 14.6854 80.0765 14.9588 80.4013 15.1477C80.7261 15.3333 81.1056 15.4261 81.5398 15.4261C81.8215 15.4261 82.0784 15.3864 82.3104 15.3068C82.5424 15.224 82.7429 15.1013 82.9119 14.9389C83.081 14.7765 83.2102 14.576 83.2997 14.3374L84.7067 14.5909C84.594 15.0052 84.3918 15.3681 84.1001 15.6797C83.8118 15.9879 83.4489 16.2282 83.0114 16.4006C82.5772 16.5696 82.0817 16.6541 81.5249 16.6541ZM87.937 6.31818V16.5H86.4505V6.31818H87.937ZM89.9368 19.3636V8.86364H91.3885V10.1016H91.5128C91.599 9.94247 91.7232 9.75852 91.8857 9.54972C92.0481 9.34091 92.2734 9.15862 92.5618 9.00284C92.8501 8.84375 93.2313 8.7642 93.7053 8.7642C94.3217 8.7642 94.8719 8.91998 95.3558 9.23153C95.8397 9.54309 96.2192 9.99219 96.4943 10.5788C96.7727 11.1655 96.9119 11.8714 96.9119 12.6967C96.9119 13.522 96.7744 14.2296 96.4993 14.8196C96.2242 15.4062 95.8464 15.8587 95.3658 16.1768C94.8852 16.4917 94.3366 16.6491 93.7202 16.6491C93.2562 16.6491 92.8767 16.5713 92.5817 16.4155C92.29 16.2597 92.0613 16.0774 91.8956 15.8686C91.7299 15.6598 91.6023 15.4742 91.5128 15.3118H91.4233V19.3636H89.9368ZM91.3935 12.6818C91.3935 13.2187 91.4714 13.6894 91.6271 14.0938C91.7829 14.4981 92.0083 14.8146 92.3033 15.0433C92.5982 15.2687 92.9595 15.3814 93.3871 15.3814C93.8312 15.3814 94.2024 15.2637 94.5007 15.0284C94.799 14.7898 95.0244 14.4666 95.1768 14.0589C95.3326 13.6513 95.4105 13.1922 95.4105 12.6818C95.4105 12.178 95.3343 11.7256 95.1818 11.3246C95.0327 10.9235 94.8073 10.607 94.5057 10.375C94.2074 10.143 93.8345 10.027 93.3871 10.027C92.9562 10.027 92.5916 10.138 92.2933 10.3601C91.9983 10.5821 91.7746 10.892 91.6222 11.2898C91.4697 11.6875 91.3935 12.1515 91.3935 12.6818Z" fill="#05060F" fill-opacity="0.6"/>
<g clip-path="url(#clip1_1_1422)">
<path d="M110.045 15.3789L106.104 11.3657C105.853 11.1105 105.853 10.6966 106.104 10.4414C106.354 10.1862 106.761 10.1862 107.011 10.4414L110.499 13.9924L113.986 10.4415C114.237 10.1863 114.643 10.1863 114.894 10.4415C115.145 10.6967 115.145 11.1106 114.894 11.3658L110.953 15.379C110.827 15.5066 110.663 15.5704 110.499 15.5704C110.334 15.5704 110.17 15.5065 110.045 15.3789Z" fill="#05060F" fill-opacity="0.6"/>
</g>
<defs>
<clipPath id="clip0_1_1422">
<rect width="22" height="22" fill="white"/>
</clipPath>
<clipPath id="clip1_1_1422">
<rect width="6.41667" height="11" fill="white" transform="translate(116 10) rotate(90)"/>
</clipPath>
</defs>
</svg>
