<svg width="24" height="29" viewBox="0 0 24 29" fill="none" xmlns="http://www.w3.org/2000/svg">
<path d="M19.3415 24.5077C19.2769 24.4658 18.7902 24.1248 18.3028 23.0933C17.4078 21.1992 17.22 18.5309 17.22 16.6261C17.22 16.6178 17.2198 16.6096 17.2195 16.6013C17.2097 14.0838 15.7023 11.9136 13.5451 10.9399V9.45077C13.5451 8.0994 12.4475 7 11.0983 7H10.8956C9.54643 7 8.44884 8.0994 8.44884 9.45077V10.9398C6.28442 11.9167 4.77394 14.098 4.77394 16.6261C4.77394 18.5309 4.58608 21.1992 3.69108 23.0933C3.20377 24.1248 2.71706 24.4657 2.65235 24.5077C2.37985 24.6339 2.24548 24.9252 2.30817 25.2204C2.37147 25.5186 2.65016 25.7241 2.95451 25.7241H7.67879C7.70518 27.5349 9.18304 29 10.997 29C12.8109 29 14.2888 27.5349 14.3151 25.7241H19.0394C19.3437 25.7241 19.6225 25.5186 19.6858 25.2204C19.7484 24.9252 19.6141 24.6338 19.3415 24.5077ZM9.73794 9.45077C9.73794 8.81135 10.2573 8.29117 10.8956 8.29117H11.0984C11.7367 8.29117 12.256 8.81135 12.256 9.45077V10.5214C11.8492 10.4373 11.4281 10.3931 10.9968 10.3931C10.5656 10.3931 10.1446 10.4373 9.73799 10.5213L9.73794 9.45077ZM10.997 27.7088C9.89383 27.7088 8.99402 26.8229 8.96786 25.7242H13.026C12.9999 26.8229 12.1001 27.7088 10.997 27.7088ZM13.5923 24.4329C13.5922 24.4329 4.4234 24.4329 4.4234 24.4329C4.5349 24.2592 4.64838 24.0624 4.76117 23.8401C5.62502 22.1366 6.06304 19.7095 6.06304 16.6261C6.06304 13.9011 8.27632 11.6842 10.9968 11.6842C13.7172 11.6842 15.9305 13.9011 15.9305 16.6282C15.9305 16.6362 15.9306 16.6441 15.9309 16.652C15.9333 19.723 16.3713 22.1415 17.2328 23.8401C17.3456 24.0625 17.4591 24.2592 17.5705 24.4329H13.5923Z" fill="#05060F" fill-opacity="0.6"/>
<rect x="7" width="17" height="17" rx="8.5" fill="#D72326"/>
<path d="M19.4779 5.75781V12.4661H17.8598V7.27111H17.8205L16.3203 8.18826V6.78633L17.9745 5.75781H19.4779Z" fill="white"/>
<path d="M10.4967 12.4719V11.3058L12.9435 9.16359C13.127 8.99763 13.2831 8.84586 13.4119 8.70829C13.5408 8.56854 13.639 8.42878 13.7067 8.28902C13.7744 8.14708 13.8083 7.99313 13.8083 7.82717C13.8083 7.64156 13.7679 7.48324 13.6871 7.35222C13.6063 7.21902 13.4949 7.11638 13.353 7.04432C13.211 6.97226 13.0483 6.93623 12.8649 6.93623C12.6793 6.93623 12.5166 6.97444 12.3769 7.05087C12.2371 7.12512 12.1279 7.23321 12.0493 7.37515C11.9729 7.51709 11.9347 7.6896 11.9347 7.89268H10.3984C10.3984 7.43629 10.5011 7.04214 10.7063 6.71022C10.9116 6.3783 11.1999 6.12281 11.5711 5.94374C11.9445 5.7625 12.3779 5.67188 12.8715 5.67188C13.3803 5.67188 13.8225 5.75704 14.1981 5.92737C14.5736 6.09769 14.8641 6.33572 15.0693 6.64143C15.2768 6.94496 15.3805 7.29763 15.3805 7.69943C15.3805 7.95492 15.3292 8.20823 15.2266 8.45935C15.1239 8.71047 14.9394 8.9878 14.673 9.29134C14.4088 9.59487 14.0332 9.95845 13.5462 10.3821L12.7437 11.1224V11.1649H15.4624V12.4719H10.4967Z" fill="white"/>
</svg>
