<svg width="36" height="36" viewBox="0 0 36 36" fill="none" xmlns="http://www.w3.org/2000/svg">
<circle cx="18" cy="18" r="18" fill="#E6EFFF"/>
<mask id="mask0_1_1719" style="mask-type:luminance" maskUnits="userSpaceOnUse" x="6" y="6" width="25" height="24">
<path d="M30.0039 6L30.0039 30L6.0039 30L6.0039 6L30.0039 6Z" fill="white"/>
</mask>
<g mask="url(#mask0_1_1719)">
<path d="M22.0039 18C22.0039 19.1 22.9039 20 24.0039 20C25.1039 20 26.0039 19.1 26.0039 18C26.0039 16.9 25.1039 16 24.0039 16C22.9039 16 22.0039 16.9 22.0039 18ZM20.0039 18C20.0039 16.9 19.1039 16 18.0039 16C16.9039 16 16.0039 16.9 16.0039 18C16.0039 19.1 16.9039 20 18.0039 20C19.1039 20 20.0039 19.1 20.0039 18ZM14.0039 18C14.0039 16.9 13.1039 16 12.0039 16C10.9039 16 10.0039 16.9 10.0039 18C10.0039 19.1 10.9039 20 12.0039 20C13.1039 20 14.0039 19.1 14.0039 18Z" fill="#2166F0"/>
</g>
</svg>
